<?xml version="1.0" standalone="no"?><!DOCTYPE svg PUBLIC "-//W3C//DTD SVG 1.1//EN" "http://www.w3.org/Graphics/SVG/1.1/DTD/svg11.dtd"><svg t="1597838497757" class="icon" viewBox="0 0 1024 1024" version="1.1" xmlns="http://www.w3.org/2000/svg" p-id="1122" xmlns:xlink="http://www.w3.org/1999/xlink" width="200" height="200"><defs><style type="text/css"></style></defs><path d="M445.27 895.64c-132.43 0-240.18-107.74-240.18-240.17 0-124.9 102.53-368.64 222.16-475.05l30.02-26.69 13.51 37.83c29.82 83.49 75.5 159.64 115.84 226.82 53.02 88.36 98.8 164.66 98.8 237.09 0.01 132.43-107.72 240.17-240.15 240.17z" fill="#FFFFFF" p-id="1123"></path><path d="M658.33 655.47c0 117.68-95.38 213.08-213.07 213.08s-213.08-95.39-213.08-213.08c0-117.67 101.09-355.21 213.08-454.81 68.53 191.89 213.07 337.14 213.07 454.81z" fill="#30495E" p-id="1124"></path><path d="M445.27 821.82c-91.73 0-166.35-74.62-166.35-166.35 0-39.95 13.43-96.19 35.56-155.66 12.71 215.16 76.26 271.23 130.79 322.01zM610.43 713.3c-106.02 0-192.26-86.25-192.26-192.25 0-98.04 80.4-289.32 174.24-372.79l30.02-26.69 13.5 37.83c22.93 64.15 58.18 122.91 89.29 174.74 41.57 69.26 77.47 129.09 77.47 186.92-0.01 105.99-86.26 192.24-192.26 192.24z" fill="#FFFFFF" p-id="1125"></path><path d="M775.59 521.05c0 91.21-73.95 165.16-165.16 165.16-91.22 0-165.16-73.95-165.16-165.16 0-91.23 78.35-275.34 165.16-352.55 53.12 148.74 165.16 261.32 165.16 352.55z" fill="#556573" p-id="1126"></path><path d="M610.43 649.98c-71.1 0-128.94-57.84-128.94-128.94 0-30.98 10.41-74.57 27.57-120.66 9.85 166.78 59.1 210.24 101.37 249.6z" fill="#FFFFFF" p-id="1127"></path></svg>